<?xml version="1.0" encoding="UTF-8"?><svg id="Livello_1" xmlns="http://www.w3.org/2000/svg" viewBox="0 0 16 16"><defs><style>.cls-1{fill:#e7ae1e;}</style></defs><path class="cls-1" d="M10.27,6.19c.08,.2,.15,.41,.22,.63,.02,.07,.04,.14,.06,.21-.26,.2-.52,.43-.8,.7-.62,.59-1.01,1.36-1.31,2.05-.1,.22-.19,.44-.28,.64v.02c-.13,.3-.25,.57-.38,.84-.14,.29-.26,.53-.4,.73-.37,.58-.81,.96-1.33,1.14-.51,.18-1.06,.15-1.57-.1-.5-.24-.95-.65-1.35-1.24-.15-.22-.29-.47-.43-.74,.26-.12,.49-.24,.7-.36,.12-.07,.24-.14,.35-.21,.12,.24,.24,.46,.37,.64,.28,.41,.58,.7,.87,.84,.23,.11,.45,.13,.67,.05,.01,0,.02,0,.03-.01,.6-.24,.95-1.08,1.37-2.06l.03-.07c.23-.55,.45-1.05,.73-1.55,.33-.59,.69-1.07,1.1-1.46,.43-.41,.81-.73,1.2-1.01,.05,.11,.09,.22,.14,.33Z"/><path class="cls-1" d="M7.7,8.3c-.26,.47-.47,.95-.66,1.4-.21-.42-.39-.84-.61-1.38h0s-.02-.06-.02-.06c-.1-.26-.19-.47-.28-.67-.22-.5-.45-.96-.75-1.5-.1-.18-.21-.38-.34-.59-.81-1.38-1.2-1.57-1.55-1.45-.15,.05-.35,.24-.49,.84-.12,.53-.16,1.24-.11,2.11,.04,.69,.16,1.42,.36,2.1-.29,.22-.64,.42-1.06,.61,0-.02-.01-.03-.02-.05-.18-.57-.31-1.17-.39-1.77-.04-.28-.07-.57-.08-.84-.06-.99,0-1.81,.14-2.45,.09-.4,.23-.74,.41-1,.22-.33,.5-.56,.84-.68,.44-.16,1.1-.21,1.81,.4,.43,.38,.8,.94,1.06,1.39,.04,.06,.07,.12,.11,.18,.26,.45,.48,.84,.67,1.21,.34,.66,.57,1.19,.76,1.68h0s.02,.06,.02,.06c.07,.17,.13,.32,.19,.46Z"/><path class="cls-1" d="M5.99,7.62c-.32,.62-.62,1.12-.95,1.55-.34,.45-.77,.84-1.3,1.19-.13,.08-.26,.17-.4,.24-.23,.13-.47,.25-.75,.38-.44,.2-.87,.37-1.24,.5l-.44-1.11c.33-.12,.82-.31,1.25-.51,.47-.22,.86-.44,1.18-.69,.3-.23,.55-.47,.75-.73,.51-.67,.87-1.41,1.22-2.18,.26,.48,.47,.89,.67,1.35Z"/><path class="cls-1" d="M11.72,6.35h0s.02,.06,.03,.09c.26,.84,.42,1.74,.47,2.6,.06,.99,0,1.81-.14,2.45-.09,.4-.23,.74-.41,1-.22,.33-.5,.56-.84,.68-.44,.16-1.1,.21-1.81-.4-.44-.39-.83-.99-1.11-1.47,.12-.27,.24-.54,.36-.83h0c.06-.16,.14-.35,.22-.53,.12,.21,.24,.42,.38,.66,.81,1.38,1.2,1.57,1.55,1.45,.15-.05,.35-.24,.49-.84,.12-.53,.16-1.24,.11-2.11-.04-.67-.16-1.39-.35-2.07-.02-.08-.05-.17-.07-.25-.11-.37-.25-.72-.4-1.05-.14-.29-.28-.56-.43-.77-.28-.41-.58-.7-.88-.84-.23-.11-.45-.13-.67-.05-.65,.23-1.08,1.04-1.47,1.86-.18-.34-.38-.7-.61-1.1-.03-.05-.06-.1-.09-.15,.53-.95,1.08-1.49,1.77-1.73,.51-.18,1.06-.15,1.57,.1,.5,.23,.95,.65,1.35,1.24,.17,.25,.32,.52,.47,.83,.18,.37,.34,.78,.48,1.22Z"/><path class="cls-1" d="M15.09,4.88c-.41,.18-.69,.51-.81,.93-.11,.39-.07,.85,.09,1.31l-1.35,.54c-.33-.89-.18-1.54,.44-1.93l.05-.03-.05-.12-1.63,.65c-.13-.39-.27-.77-.44-1.11l1.62-.64-.05-.12h-.05c-.81,.14-1.22-.14-1.64-1.11l1.35-.54c.19,.44,.48,.8,.83,1,.38,.22,.8,.26,1.23,.11l.42,1.05Z"/></svg>