<svg width="32" height="32" viewBox="0 0 32 32" fill="none" xmlns="http://www.w3.org/2000/svg">
<g clip-path="url(#clip0_603_2)">
<path d="M12.7371 16.576C13.3201 16.0611 13.9047 15.5706 14.5363 15.0557L16.6831 17.6018C14.7989 19.1384 13.4291 20.3713 11.1683 22.8443C8.4311 25.8396 8.5822 26.8044 8.93395 27.2698L6.23474 29.2433C5.54198 28.3264 4.91114 26.7776 5.84253 24.6083C6.33878 23.4534 7.20989 22.2271 8.66725 20.6328C10.2873 18.8606 11.5068 17.6627 12.7371 16.5752V16.576Z" fill="white"/>
<path d="M6.23392 29.3255C6.20833 29.3255 6.18356 29.3142 6.16787 29.293C5.46189 28.3591 4.8195 26.7826 5.76658 24.5784C6.26613 23.4146 7.14219 22.1817 8.60616 20.5802C10.1428 18.8982 11.3623 17.6832 12.6826 16.5161C13.2119 16.0483 13.7841 15.5651 14.4843 14.9941C14.5198 14.9657 14.5718 14.9706 14.6007 15.0047L16.7476 17.5508C16.7765 17.5857 16.7715 17.6369 16.7368 17.6653C14.8559 19.1995 13.4877 20.4307 11.2302 22.8997C8.22138 26.1914 8.80763 26.9678 9.00002 27.2228C9.01323 27.2399 9.01901 27.2618 9.01571 27.2829C9.0124 27.3041 9.00084 27.3235 8.9835 27.3365L6.28429 29.3101C6.26943 29.3207 6.25209 29.3263 6.23475 29.3263L6.23392 29.3255ZM12.7925 16.6363C11.4771 17.7993 10.2617 19.0103 8.72836 20.6874C7.27761 22.2751 6.41062 23.4942 5.91851 24.6402C5.02427 26.7234 5.59153 28.2218 6.25209 29.129L8.82084 27.2513C8.48974 26.7388 8.4501 25.6968 11.1072 22.7901C13.3457 20.3414 14.7122 19.1061 16.5676 17.5906L14.5264 15.1687C13.8568 15.7153 13.3044 16.1831 12.7933 16.6347L12.7925 16.6363Z" fill="black"/>
<path d="M15.1151 8.41553C16.6046 9.01409 18.692 9.37307 20.7109 9.72067C24.3778 10.3517 28.1702 11.0039 30.0743 13.2763L27.4791 15.3798C26.3661 14.0511 23.0542 13.4818 20.132 12.9791C17.9373 12.6014 15.6683 12.2116 13.8435 11.4782L15.1159 8.41553H15.1151Z" fill="white"/>
<path d="M27.4783 15.4612C27.4544 15.4612 27.4304 15.4515 27.4147 15.432C26.3207 14.1269 23.0253 13.56 20.1172 13.0597C17.9184 12.6812 15.6452 12.2906 13.8113 11.5539C13.7692 11.5369 13.7486 11.4898 13.7659 11.4483L15.0383 8.38568C15.0557 8.34426 15.1044 8.32395 15.1457 8.34101C16.627 8.93632 18.7102 9.29449 20.7241 9.64128C24.4059 10.2748 28.2132 10.9294 30.1371 13.2254C30.1511 13.2416 30.1577 13.2635 30.1552 13.2846C30.1528 13.3058 30.1428 13.3261 30.1255 13.3399L27.5303 15.4434C27.5146 15.4556 27.4965 15.462 27.4783 15.462V15.4612ZM13.9509 11.4329C15.7542 12.1436 17.9861 12.5277 20.1453 12.8989C23.0369 13.3959 26.3075 13.9587 27.4882 15.2663L29.9571 13.2651C28.0555 11.0658 24.3151 10.4226 20.696 9.80047C18.7069 9.45855 16.6517 9.10525 15.1597 8.52131L13.95 11.4329H13.9509Z" fill="black"/>
<path d="M19.2627 15.4236C18.6797 15.9386 18.0951 16.4291 17.4635 16.944L15.3167 14.3979C17.2009 12.8613 18.5707 11.6284 20.8315 9.15537C23.5687 6.16012 23.4176 5.19527 23.0658 4.7299L25.7651 2.75635C26.4578 3.67328 27.0887 5.22207 26.1573 7.39136C25.661 8.54625 24.7899 9.77262 23.3325 11.3669C21.7125 13.139 20.493 14.337 19.2627 15.4245V15.4236Z" fill="#EDBD60"/>
<path d="M17.4643 17.0253C17.4404 17.0253 17.4173 17.0156 17.4008 16.9961L15.2539 14.4499C15.225 14.415 15.23 14.3638 15.2647 14.3354C17.1456 12.8012 18.5138 11.5708 20.7713 9.10104C23.7801 5.80935 23.1939 5.03292 23.0007 4.7779C22.9875 4.76084 22.9817 4.73892 22.985 4.7178C22.9883 4.69668 22.9998 4.67719 23.0172 4.6642L25.7164 2.69064C25.7337 2.67765 25.756 2.67196 25.7775 2.67521C25.799 2.67846 25.8188 2.68983 25.832 2.70689C26.538 3.64087 27.1804 5.21728 26.2333 7.42149C25.7337 8.58532 24.8577 9.81818 23.3937 11.4198C21.8562 13.1017 20.6375 14.3167 19.3172 15.4838C18.7879 15.9516 18.2157 16.4349 17.5155 17.0058C17.4998 17.018 17.4817 17.0245 17.4627 17.0245L17.4643 17.0253ZM15.4339 14.4085L17.4751 16.8304C18.1447 16.2838 18.6971 15.816 19.2082 15.3644C20.5236 14.2022 21.739 12.9905 23.2723 11.3134C24.7231 9.72559 25.5901 8.50654 26.0822 7.36058C26.9764 5.27819 26.4092 3.77894 25.7486 2.87176L23.1798 4.74947C23.5109 5.26195 23.5506 6.30395 20.8935 9.21068C18.655 11.6602 17.2876 12.8946 15.4331 14.4101L15.4339 14.4085Z" fill="black"/>
<path d="M25.1044 1.89067L22.4052 3.86422C22.1237 3.49144 21.2245 3.31926 20.0602 3.4151C18.6995 3.52718 16.9688 3.99498 15.3116 4.69994L13.9773 1.66326C15.9837 0.809681 18.0447 0.260659 19.7795 0.118531C21.4912 -0.0219733 23.8048 0.170509 25.1044 1.89148V1.89067Z" fill="#EDBD60"/>
<path d="M15.3108 4.78108C15.2786 4.78108 15.2488 4.7624 15.2348 4.73235L13.9005 1.69568C13.8914 1.67619 13.8914 1.65345 13.8996 1.63314C13.9079 1.61284 13.9236 1.59741 13.9434 1.58847C15.9589 0.731643 18.029 0.180998 19.7729 0.0372449C21.5052 -0.104883 23.8485 0.0916598 25.1713 1.84187C25.1985 1.8776 25.1911 1.92877 25.1539 1.95557L22.4547 3.92913C22.4374 3.94212 22.4151 3.94699 22.3936 3.94456C22.3722 3.94131 22.3523 3.92994 22.3391 3.91288C22.0782 3.56771 21.1864 3.40366 20.0668 3.49624C18.7143 3.60751 16.9935 4.07369 15.3438 4.77459C15.3331 4.77946 15.3223 4.78108 15.3108 4.78108ZM14.0854 1.70543L15.3545 4.59266C16.996 3.90232 18.7052 3.44426 20.0536 3.33381C21.2005 3.2396 22.0716 3.39635 22.4184 3.7537L24.9888 1.87436C23.7024 0.244346 21.4556 0.0616097 19.7861 0.198865C18.0818 0.339369 16.0605 0.873772 14.0854 1.70543Z" fill="black"/>
<path d="M14.2441 5.07525C10.4195 6.7012 7.03908 8.96713 5.42319 10.9878L2.7793 8.94276C4.74942 6.47866 8.5369 3.89761 12.909 2.03857L14.2433 5.07525H14.2441Z" fill="#EDBD60"/>
<path d="M5.4231 11.0688C5.40493 11.0688 5.38759 11.0631 5.37191 11.0518L2.72802 9.00675C2.71068 8.99376 2.69994 8.97427 2.69664 8.95234C2.69334 8.93041 2.69994 8.90929 2.71398 8.89224C4.69235 6.41758 8.4914 3.82759 12.8759 1.96368C12.918 1.94581 12.9659 1.96531 12.984 2.00591L14.3184 5.04259C14.3274 5.06208 14.3274 5.08482 14.3192 5.10512C14.3109 5.12543 14.2952 5.14086 14.2754 5.14979C10.4623 6.77087 7.09514 9.02706 5.48668 11.038C5.47016 11.0583 5.44622 11.0688 5.42145 11.0688H5.4231ZM2.89563 8.92878L5.40906 10.8739C7.04147 8.87274 10.3699 6.64417 14.1351 5.03284L12.866 2.14561C8.57562 3.98109 4.85997 6.50854 2.89481 8.9296L2.89563 8.92878Z" fill="black"/>
<path d="M3.79232 15.7518L1.19715 17.8553C0.292179 16.7759 -0.0719549 15.4188 0.142727 13.9317C0.338418 12.573 1.00641 11.1736 2.12771 9.771L4.7716 11.816C3.46452 13.4509 3.09873 14.9217 3.79315 15.7509L3.79232 15.7518Z" fill="#EDBD60"/>
<path d="M1.19715 17.9365C1.17321 17.9365 1.14926 17.9268 1.13357 17.9073C0.213744 16.8093 -0.156995 15.431 0.0601636 13.9204C0.258332 12.5478 0.932103 11.1347 2.06166 9.72152C2.07487 9.70446 2.09469 9.6939 2.11698 9.69147C2.13928 9.68903 2.16074 9.69471 2.17808 9.70852L4.82198 11.7535C4.83931 11.7665 4.85005 11.786 4.85335 11.808C4.85665 11.8299 4.85005 11.851 4.83601 11.8681C3.55453 13.4705 3.18792 14.9039 3.85591 15.7015C3.88481 15.7364 3.87985 15.7876 3.84435 15.816L1.24917 17.9195C1.23348 17.9317 1.21532 17.9382 1.19715 17.9382V17.9365ZM2.14175 9.88557C1.06009 11.2549 0.415215 12.6193 0.224478 13.9431C0.0172272 15.3782 0.357416 16.6891 1.20871 17.7408L3.67756 15.7396C3.03433 14.8812 3.39517 13.4323 4.65518 11.8307L2.14175 9.88639V9.88557Z" fill="black"/>
<path d="M16.8847 23.5844C15.3952 22.9858 13.3078 22.6269 11.289 22.2793C7.62204 21.6482 3.8296 20.996 1.92554 18.7236L4.52071 16.6201C5.63376 17.9488 8.94564 18.5181 11.8678 19.0209C14.0625 19.3985 16.3315 19.7884 18.1563 20.5217L16.8839 23.5844H16.8847Z" fill="#EDBD60"/>
<path d="M16.8847 23.6655C16.874 23.6655 16.8641 23.6639 16.8533 23.6598C15.372 23.0645 13.2888 22.7063 11.2749 22.3595C7.59312 21.726 3.78582 21.0714 1.86194 18.7754C1.8479 18.7592 1.8413 18.7373 1.84377 18.7162C1.84625 18.695 1.85616 18.6747 1.8735 18.6609L4.46867 16.5574C4.48601 16.5436 4.50748 16.5371 4.52895 16.5396C4.55042 16.542 4.57106 16.5517 4.5851 16.5688C5.67915 17.8739 8.97452 18.4408 11.8826 18.9411C14.0815 19.3196 16.3546 19.7102 18.1885 20.4469C18.2306 20.4639 18.2513 20.511 18.2339 20.5525L16.9615 23.6151C16.9483 23.6468 16.9178 23.6655 16.8847 23.6655ZM2.04277 18.734C3.94435 20.9334 7.68477 21.5766 11.3038 22.1987C13.2929 22.5406 15.3481 22.8939 16.8401 23.4779L18.0498 20.5663C16.2465 19.8556 14.0146 19.4715 11.8546 19.1003C8.96378 18.6033 5.69236 18.0404 4.51161 16.7329L2.04277 18.734Z" fill="black"/>
<path d="M25.4489 30.6905L22.0858 30.7449C22.0635 29.4105 21.6787 27.9649 21.0314 26.7791C20.517 25.837 19.5691 24.5798 17.9788 23.9406L19.2512 20.8779C21.2419 21.6779 22.8818 23.1772 23.994 25.2133C24.9006 26.8733 25.4167 28.8176 25.4489 30.6897V30.6905Z" fill="#EDBD60"/>
<path d="M22.0866 30.8261C22.042 30.8261 22.0048 30.7904 22.004 30.7465C21.9817 29.4243 21.601 27.9925 20.9595 26.8181C20.4508 25.8874 19.5162 24.6464 17.949 24.0162C17.9283 24.008 17.9126 23.9926 17.9044 23.9723C17.8961 23.952 17.8961 23.9301 17.9044 23.9098L19.1768 20.8471C19.1941 20.8057 19.2428 20.7854 19.2841 20.8024C21.2931 21.6097 22.9469 23.122 24.0682 25.1751C24.9806 26.8457 25.5008 28.8047 25.533 30.6889C25.533 30.7336 25.4975 30.7709 25.4521 30.7717L22.089 30.8261C22.089 30.8261 22.0882 30.8261 22.0874 30.8261H22.0866ZM18.0869 23.896C19.654 24.553 20.592 25.8013 21.1048 26.7402C21.7455 27.9129 22.1311 29.3374 22.1675 30.6621L25.3654 30.6101C25.3208 28.7762 24.8097 26.8766 23.9221 25.2515C22.833 23.2584 21.2353 21.7843 19.2973 20.9835L18.0877 23.896H18.0869Z" fill="black"/>
<path d="M6.89536 30.1096L9.59457 28.136C9.87613 28.5088 10.7753 28.681 11.9396 28.5851C13.3003 28.4731 15.031 28.0052 16.6882 27.3003L18.0225 30.337C16.0152 31.1905 13.9543 31.7388 12.2195 31.8817C10.5078 32.0222 8.19418 31.8297 6.89453 30.1087L6.89536 30.1096Z" fill="white"/>
<path d="M11.341 32.0001C9.75975 32.0001 7.93661 31.6232 6.82934 30.1573C6.81613 30.1402 6.81035 30.1183 6.81366 30.0972C6.81696 30.076 6.82852 30.0566 6.84586 30.0436L9.54507 28.07C9.56241 28.057 9.5847 28.0521 9.60617 28.0546C9.62764 28.0578 9.64746 28.0692 9.66067 28.0862C9.92159 28.4314 10.8133 28.5955 11.933 28.5029C13.2855 28.3916 15.0063 27.9254 16.656 27.2245C16.6973 27.2067 16.746 27.2254 16.7642 27.2668L18.0985 30.3034C18.1167 30.3449 18.0977 30.3928 18.0556 30.4098C16.04 31.2667 13.97 31.8173 12.2269 31.9611C11.9454 31.9846 11.6473 31.9984 11.341 31.9984V32.0001ZM7.01182 30.1256C8.29826 31.7564 10.545 31.9383 12.2137 31.8011C13.918 31.6606 15.9393 31.1262 17.9144 30.2945L16.6453 27.4073C15.0038 28.0976 13.2954 28.5557 11.9462 28.6661C10.7993 28.7603 9.9282 28.6036 9.5814 28.2462L7.011 30.1256H7.01182Z" fill="black"/>
<path d="M17.7556 26.9247C21.5803 25.2988 24.9607 23.0329 26.5766 21.0122L29.2205 23.0572C27.2503 25.5213 23.4629 28.1024 19.0908 29.9614L17.7564 26.9247H17.7556Z" fill="white"/>
<path d="M19.0901 30.0424C19.0579 30.0424 19.0273 30.0237 19.0141 29.9937L17.6798 26.957C17.6707 26.9375 17.6707 26.9148 17.6789 26.8945C17.6872 26.8742 17.7029 26.8587 17.7227 26.8498C21.5358 25.2287 24.903 22.9725 26.5115 20.9616C26.5395 20.9267 26.5916 20.9202 26.6271 20.9478L29.2709 22.9928C29.2883 23.0058 29.299 23.0253 29.3023 23.0473C29.3056 23.0692 29.299 23.0903 29.285 23.1074C27.3066 25.582 23.5076 28.172 19.1231 30.0359C19.1124 30.0408 19.1016 30.0424 19.0901 30.0424ZM17.8639 26.9668L19.133 29.854C23.4242 28.0185 27.139 25.4911 29.1042 23.07L26.5907 21.1249C24.9583 23.126 21.6299 25.3546 17.8647 26.9659L17.8639 26.9668Z" fill="black"/>
<path d="M28.2073 16.248L30.8025 14.1445C31.7066 15.2239 32.0716 16.581 31.8569 18.0681C31.6612 19.4268 30.9932 20.8262 29.8719 22.2288L27.228 20.1838C28.5351 18.5489 28.9009 17.0781 28.2065 16.2488L28.2073 16.248Z" fill="white"/>
<path d="M29.8728 22.3099C29.8546 22.3099 29.8373 22.3042 29.8216 22.2928L27.1777 20.2478C27.1604 20.2348 27.1496 20.2153 27.1463 20.1934C27.143 20.1714 27.1496 20.1503 27.1637 20.1333C28.4452 18.5309 28.8118 17.0974 28.1438 16.2999C28.1149 16.2649 28.1198 16.2138 28.1554 16.1853L30.7505 14.0818C30.767 14.068 30.7893 14.0615 30.8108 14.064C30.8323 14.0664 30.8529 14.0762 30.8669 14.0932C31.7868 15.1904 32.1575 16.5695 31.9395 18.0793C31.7414 19.4527 31.0676 20.865 29.938 22.2782C29.9215 22.2985 29.8976 22.309 29.8728 22.309V22.3099ZM27.3453 20.1698L29.8588 22.1141C30.9404 20.7448 31.5853 19.3804 31.776 18.0566C31.9833 16.6215 31.6431 15.3106 30.7918 14.2589L28.323 16.2601C28.9662 17.1185 28.6054 18.5674 27.3453 20.169V20.1698Z" fill="black"/>
<path d="M6.55103 1.3093L9.9141 1.25488C9.9364 2.58927 10.3212 4.03491 10.9685 5.22067C11.4829 6.16278 12.4308 7.42001 14.0211 8.05918L12.7487 11.1218C10.758 10.3219 9.11813 8.82261 8.00591 6.78652C7.09929 5.12646 6.58323 3.18214 6.55103 1.31011V1.3093Z" fill="white"/>
<path d="M12.7488 11.2029C12.738 11.2029 12.7281 11.2013 12.7174 11.1972C10.7085 10.3899 9.0546 8.87767 7.9333 6.82453C7.0209 5.15391 6.50071 3.19579 6.46851 1.31076C6.46851 1.28883 6.47676 1.26853 6.49163 1.2531C6.50649 1.23767 6.52796 1.22873 6.54942 1.22873L9.9125 1.17432C9.93397 1.17432 9.95544 1.18244 9.97113 1.19706C9.98681 1.21168 9.9959 1.23279 9.9959 1.25391C10.0182 2.57611 10.3988 4.00795 11.0404 5.18234C11.549 6.11307 12.4837 7.35406 14.0509 7.9843C14.0716 7.99242 14.0872 8.00785 14.0955 8.02815C14.1038 8.04846 14.1038 8.07038 14.0955 8.09069L12.8231 11.1534C12.8099 11.185 12.7793 11.2037 12.7463 11.2037L12.7488 11.2029ZM6.6353 1.38954C6.67989 3.22421 7.19099 5.12386 8.07862 6.74818C9.16772 8.74123 10.7654 10.2153 12.7034 11.0161L13.913 8.10368C12.3458 7.44664 11.4078 6.19835 10.8951 5.25949C10.2543 4.08673 9.86874 2.6622 9.83241 1.33756L6.63447 1.38954H6.6353Z" fill="black"/>
</g>
<defs>
<clipPath id="clip0_603_2">
<rect width="32" height="32" fill="white"/>
</clipPath>
</defs>
</svg>
